# xmcd
#
# Track frame offsets: 
#        150
#        11958
#        23042
#        36401
#        48492
#        60153
#        73029
#        85391
#        97168
#        109283
#        122185
#        133685
#        145379
#        158445
#        171718
#        183287
#        194647
#        206172
#        218648
#        233065
#        246695
#        258659
#        271636
#
# Disc length: 3783 seconds
#
# Revision: 1
# Processed by: cddbd v1.5.2PL0 Copyright (c) Steve Scherf et al.
# Submitted via: ExactAudioCopy v1.1
#
DISCID=650ec517
DTITLE=Georgia White - Complete Recorded Works in Chronological Order 
DTITLE=Volume 2 (1936-1937)
DYEAR=1900
DGENRE=Blues
TTITLE0=I Just Want Your Stingaree
TTITLE1=Black Rider
TTITLE2=I'll Keep Sittin' on It
TTITLE3=Pigmeat Blues
TTITLE4=Trouble in Mind
TTITLE5=Was I Drunk?
TTITLE6=No Second Hand Woman
TTITLE7=Sinking Sun Blues
TTITLE8=Little Red Wagon
TTITLE9=Dan the Back Door Man
TTITLE10=Your Hellish Ways
TTITLE11=Marble Stone Blues
TTITLE12=You Don't Know My Mind
TTITLE13=When My Love Comes Down
TTITLE14=Walking the Street
TTITLE15=Grandpa and Grandma
TTITLE16=I'm So Glad I'm 21 Today
TTITLE17=Toothache Blues
TTITLE18=Mistreated Blues
TTITLE19=New Trouble in Mind
TTITLE20=Trouble in Mind Swing
TTITLE21=Moonshine Blues
TTITLE22=Biscuit Roller
EXTD=
EXTT0=
EXTT1=
EXTT2=
EXTT3=
EXTT4=
EXTT5=
EXTT6=
EXTT7=
EXTT8=
EXTT9=
EXTT10=
EXTT11=
EXTT12=
EXTT13=
EXTT14=
EXTT15=
EXTT16=
EXTT17=
EXTT18=
EXTT19=
EXTT20=
EXTT21=
EXTT22=
PLAYORDER=
